/* XPM */
static char *_5d8c967e55f46f79d334f96b6b1c1bf8jfOLuUPpOIHC5tT[] = {
/* columns rows colors chars-per-pixel */
"50 50 243 2 ",
"   c #0E0904",
".  c #110C05",
"X  c #160A02",
"o  c #16150A",
"O  c #1C1C11",
"+  c #0D1006",
"@  c #261908",
"#  c #361E11",
"$  c #361B0A",
"%  c #252C15",
"&  c #282A18",
"*  c #3D2215",
"=  c #382918",
"-  c #2B3516",
";  c #2D3A17",
":  c #2D3419",
">  c #2D3B19",
",  c #263216",
"<  c #323C17",
"1  c #31361A",
"2  c #333D1C",
"3  c #393F1C",
"4  c #38331A",
"5  c #37240A",
"6  c #353E20",
"7  c #3A3925",
"8  c #2F3222",
"9  c #481A09",
"0  c #431F13",
"q  c #571E10",
"w  c #4E330E",
"e  c #422515",
"r  c #44291A",
"t  c #4C2A1A",
"y  c #4A2516",
"u  c #532D1B",
"i  c #562516",
"p  c #4B391C",
"a  c #59341D",
"s  c #5B220D",
"d  c #672D18",
"f  c #66371B",
"g  c #73371C",
"h  c #61230D",
"j  c #532F20",
"k  c #473926",
"l  c #543221",
"z  c #5B3C2B",
"x  c #563925",
"c  c #4A2F20",
"v  c #633722",
"b  c #6A3B24",
"n  c #643925",
"m  c #733D23",
"M  c #783923",
"N  c #2D431A",
"B  c #34421C",
"V  c #3B441D",
"C  c #3D491E",
"Z  c #314017",
"A  c #344321",
"S  c #3C4422",
"D  c #364922",
"F  c #3D4A23",
"G  c #3E4629",
"H  c #3F4230",
"J  c #41471E",
"K  c #434C1D",
"L  c #484E1F",
"P  c #45531C",
"I  c #4A541D",
"U  c #4A591D",
"Y  c #47581C",
"T  c #525A1F",
"R  c #51431F",
"E  c #68461A",
"W  c #79491E",
"Q  c #7B531B",
"!  c #414623",
"~  c #434B24",
"^  c #494E25",
"/  c #44442A",
"(  c #444C29",
")  c #4A4C2B",
"_  c #4E442E",
"`  c #5A4629",
"'  c #445224",
"]  c #4B5424",
"[  c #4D5A22",
"{  c #455329",
"}  c #4B542A",
"|  c #4C5A2C",
" . c #475829",
".. c #535C24",
"X. c #5B5E26",
"o. c #51552C",
"O. c #545C2B",
"+. c #5A5C2B",
"@. c #535427",
"#. c #474933",
"$. c #584934",
"%. c #4D5335",
"&. c #585936",
"*. c #694529",
"=. c #744226",
"-. c #74432A",
";. c #734B2C",
":. c #7B4628",
">. c #685828",
",. c #775A26",
"<. c #674A33",
"1. c #784C33",
"2. c #635E32",
"3. c #6B5D33",
"4. c #695738",
"5. c #745434",
"6. c #775936",
"7. c #546124",
"8. c #5B6226",
"9. c #56622A",
"0. c #5B632B",
"q. c #5E692B",
"w. c #556133",
"e. c #5D6432",
"r. c #5E6536",
"t. c #62652C",
"y. c #636B2C",
"u. c #6A6B2E",
"i. c #696328",
"p. c #68712F",
"a. c #636532",
"s. c #6B6433",
"d. c #656B33",
"f. c #6B6C34",
"g. c #6B653C",
"h. c #6B6C3B",
"j. c #64683A",
"k. c #746D3B",
"l. c #7C6D3B",
"z. c #776737",
"x. c #6D7334",
"c. c #6B713A",
"v. c #677034",
"b. c #717335",
"n. c #74743B",
"m. c #78783A",
"M. c #545A46",
"N. c #665942",
"B. c #5C6248",
"V. c #6C6444",
"C. c #696C44",
"Z. c #6A6B49",
"A. c #666947",
"S. c #786844",
"D. c #6D7141",
"F. c #747545",
"G. c #686D54",
"H. c #777756",
"J. c #813F1E",
"K. c #813E23",
"L. c #864726",
"P. c #865A29",
"I. c #9A542D",
"U. c #874D31",
"Y. c #845935",
"T. c #885836",
"R. c #925C36",
"E. c #934925",
"W. c #A95A2A",
"Q. c #B05E2B",
"!. c #856325",
"~. c #8B6629",
"^. c #966A29",
"/. c #836A39",
"(. c #896838",
"). c #9C6333",
"_. c #976936",
"`. c #89743B",
"'. c #97753B",
"]. c #9C712C",
"[. c #B4642D",
"{. c #A56734",
"}. c #BB6D33",
"|. c #B36C35",
" X c #A77838",
".X c #BE7E3A",
"XX c #B87536",
"oX c #AC722E",
"OX c #C6682A",
"+X c #C36D31",
"@X c #CD7C3A",
"#X c #C57937",
"$X c #D57E39",
"%X c #D27836",
"&X c #CF712F",
"*X c #845F40",
"=X c #876B45",
"-X c #9A6842",
";X c #8A7A46",
":X c #957546",
">X c #857A50",
",X c #A67848",
"<X c #B37B47",
"1X c #C07B42",
"2X c #AC803C",
"3X c #BB833B",
"4X c #BE883E",
"5X c #C5853C",
"6X c #D4873D",
"7X c #9D844C",
"8X c #8B8257",
"9X c #98895A",
"0X c #BD8A43",
"qX c #B98948",
"wX c #A28853",
"eX c #B89452",
"rX c #AB8851",
"tX c #BDA05D",
"yX c #898864",
"uX c #928D64",
"iX c #8F906B",
"pX c #C58442",
"aX c #C38C44",
"sX c #CB8945",
"dX c #D58A44",
"fX c #C3924B",
"gX c #CC974B",
"hX c #D69848",
"jX c #C48854",
"kX c #C59854",
"lX c #D89759",
"zX c #D7A959",
"xX c #D7A150",
"cX c #E8B65C",
"vX c #E1A851",
"bX c #E49D63",
"nX c #E5AA68",
"mX c #E9B964",
"MX c #EFB473",
"NX c #D7AC69",
"BX c #F6C679",
"VX c #ECC56D",
"CX c #FCD583",
/* pixels */
"B Z > < S ! S F G G ~ ! V V ! ! ! ! ^ @.e.h.c.v.q.| U Y [ ..T T I I ] ] ~ ! S 6 2 - , % & & 1 1 2 6 ",
"A B 2 2 S F S G F ~ ! F V V 3 ! ! ^ ] O.a.h.h.f.q.7.T ] ..X.X.....@...] ] ~ F S 2 - % , : : & 1 6 6 ",
"S S A F G F G S ! ~ ! ! V 3 3 J ~ ] 9.a.k.n.f.d.t.8.X.X.+.2.8.0.0.0.9.O.[ ] ~ F > > > - > 8 : : 2 2 ",
"S S F F F F F ! ~ ! ! ! J V 3 J I ..t.f.k.k.h.a.t.>.>.>.4.3.3.s.g.s.t.9.8...] C < ; ; > 2 2 8 : > 2 ",
"S S ! F F F ! ! ! ! J ! J L ] ] ..X.u.u.k.V.4.4.*.` *.;.-.;.5.5.z.k.s.d.q.8.@.J V 2 ; ; - - > > 6 A ",
"S S S ! ! C ~ ! ! F J J L ] ....>.>.>.>.4.4.N.<.` n *.=.=.g =.=.1.z.z.f.f.u.9.] V 3 3 2 < - > > 6 A ",
"C S S S ! ! ! K C C J ~ ] ..7.i.i.3.>.>.<.$.z z z b =.M g d d d g =.5.z.k.b.d.O.^ C J V 2 : - : 6 6 ",
"V V S S V S ! C C K ^ ] ..X.>.3.,.>.;.b z x k l l v m g g d h h h d :.6.z.k.f.+.^ ! ~ ~ V 3 > > > 6 ",
"3 3 3 2 3 3 S V V K [ ..8.t.2.4.5.1.b n j c * # e u v b d d 9 9 9 h d =.6.z.s.e.] ' { { ~ C 3 > > 6 ",
"2 2 2 2 2 2 V V C P 7.t.u.s.4.5.1.m n j r # # # * t a v v a # $ $ 9 d g ;.5.3.3... .'  .] ^ F V 6 > ",
"6 6 6 6 3 3 V C P U 7.y.k./.Y.1.b z j e 0 # # # r j l n x c = 8 = e i d f *.;.>.+...[ [ O.O. .~ B 2 ",
"S 6 S 3 B V V P Y T y.u.=XR.T.U.b j r * 0 0 0 i j v b b v x / k 7 4 r u a b m =.>.X...9.8.9.O.] F 2 ",
"! ! F V V V J P T y.p.l.(.R.U.M l y e e 0 i 0 j v =.L.=.f ` o.%.#.k 8 = u d g W ,.i.8.8.0.8...] ! F ",
"! ! K K K C K Y 8.y.k./.T.U.L.m l t e r j 0 i i m M L.W E >.a.&.M.#.7 4 u b W W ,.i.i.t.....] ( ( ^ ",
"~ ' ] ] ] I Y U 8.p.z.6.1.:.-.*.x k c t i q q d g K.J.J.=.>.s.3.&.#.#.k *.m L.L.,.i.u.8.| ^ F ' ] } ",
"P ] ........[ ..q.i.,.5.;.=.*.` _ #.x l j d d d M K.J.W ,.,.z.6.N.$.$.4.1.U.L.U.,.i.t.+.' ' F F ( ] ",
"L ] ..+.+.O...O.4.5.N.<.z z z #.$.$.$.z ;.L.E.E.L.K.J.L.:.6.Y.6.<.;.6.Y.I.I.U.U.5.3.8.X.] ' ' { '  .",
"L ] O.+.+.+...9.4.N.<.<.z x k $.M.N.4.N.(. X|.[.I.E.L.L.P.T.T.T.U.I.).{.W.W.R.Y.4.a.X...[ ' { ' ' ~ ",
"] o.O.+.+.9.e.d.j.N.N.<.z x $.$.N.S.=X:XqXfXdX6X+X[.W.I.T.Y.T._.{.}.+X+XQ.W.I.S.z.t.X...O.| ] ' F F ",
") } o.O.+.0.q.d.j.V.N.N.$.z <.*X:XwXeXtXzXvXvX6X@X+X[.W.R.Y.T.).}.%X%X&XOXW._.S.f.t.X.I ] ] ' F F F ",
"( ( ] ..9.e.e.r.j.V.C.V.N.N.*X,XtXNXMXCXVXNXvX6X$X#X}.{.R.T.Y.).}.%X@X+X[.Q.(.l.f.0...Y K C B Z D D ",
"C K ~ ] O.9.0.r.j.C.Z.A.N.S.,X<XnXBXCXCXBXmXhX6X@X@X<XXX{._.R.).|.+X}.}.[.].`.b.y.8.I K V < ; ; N A ",
"B B V C ] O.0.a.C.Z.A.A.V.=X<XlXMXBXCXCXBXnXgX5X5XpXfXqXXX{.).).{.).{.{.{.~.b.u.9.[ K V < - - - > > ",
"Z Z Z V ( } O.0.C.Z.A.Z.S.:XjXbXMXMXBXMXmXlXsX#X5X0XfXfX0X.X X{.)._._._._./.u.8.[ P C < : - - - > > ",
"B Z < B ~ ^ ..8.v.C.C.C.=X:XjXbXbXnXnXnXlXsX#X#XaXfXeXqXaXfXaX3X2X'. X'.`.l.i.U I K Z 1 : , : : > > ",
"B Z 3 B F ~ I ..v.v.h.S.=X,XjXlXbXlXlXgXpX#X#X#XsXaX<XqXfXgXlXgX4X2X2X2X:Xn.i.T P J 3 1 1 1 1 : 2 < ",
"> > Z Z V C P U q.p.n.m.-X,XqXsXdXlXsX5XXX}.#X5XpX3X X XeXxXzXzXxX4X2X2X`.b.8.I K J 3 < 3 2 2 2 2 2 ",
"> > Z Z 3 C P U 9.p.b.m.:XrX1XsX1X1X5X5X}.}.3X3X3XoX^.].qXzXcXVXzX5X4X2X`.b.X.I P J J 3 V V < 2 > 2 ",
"2 2 > B Z V ' O.0.y.x.m.8XrXpX1X$X$X$X$X5X3X5X3XoX^.~.^.2XzXVXVXvXhX5X2X`.s.T I K J J J ~ ! 6 2 > > ",
"2 B B 6 B F  .O.e.q.p.n.;X,X<X1X$X$X$X$X5X4X5X2X].!.,.^.2XxXcXcXvXhX4X2X/.3.X.L J J J J ( ! 6 3 > > ",
"A A S S S F { @.O.0.d.x.`.:X:X,X1XdXdXdXfX0X4X2X].,.,.!. X4XxXhXhX3X X`.b.i.T L J ! R ! ~ F 3 2 2 B ",
"A 6 6 S S F ( } ] O.9.u.z./.R.R.<X1XhXhXeXeX0X2X].~.,.,.].2X5X5X5X X'.l.b.i...L V V / ! k 3 2 2 2 A ",
"2 2 2 A S F G ~ ~ ' ..9.t.3.1.Y._.<XkXeXrXwXwX7X7X'.~.~.^.].2XoX].].~.z.f.t...K C B S 6 6 1 1 1 - : ",
"2 2 2 3 6 S S D C C ] ..O.+.<.5.`.,XeXeXwX9X9X9X9X;X~.~.!.~.^.^.!.!.z.f.y.q...' V V S 6 2 1 1 & : : ",
"3 S S S S S D D B C P [ ..O.O.2.F.8X7XwXuXuXuXuX8X`.l.,.,.Q Q Q W >.3.f.y.y.9.] F V B V V 7 1 , % % ",
"F S G G F S A B N Z K ] ....+.a.v.m.8X8XyXiXiXyX>Xl.z.>.E E E E a ` a.f.p.y.9.[ K 2 B V ! ! 2 1 : - ",
"/ ( ( ( ! F B 2 < 3 ! ] ] ..8.t.v.D.F.H.yXiXiXyXF.g.>.` E a w w w ` a.c.p.q.7.' C 3 3 C ! / S A A A ",
"( ( ( ( ! S 2 3 B F ! ] ..8.t.u.x.D.Z.H.H.H.yXH.Z.4.@.R p r 0 5 c o.d.x.p.y.7. .~ C F F ! ( F S F ( ",
"} } } ) ! J 3 V ~ ) | o.9.q.y.x.D.F.A.A.G.G.G.G.A.&.) p = $ @ @ k &.f.m.b.p.9.7...] ( G S S S F { } ",
"o.o.o.| ^ ! V ! ) | O.O.9.0.y.x.m.F.Z.G.B.M.M.M.&.%.! 4 5 @ X @ G &.c.m.b.p.q.7...@.} / 6 6 6 G ( } ",
"+.+.t.&.@.~ C F ] | w.w.o.o.0.e.x.b.n.V.&.%.H H / 7 4 & @ X   O ( r.c.x.p.q.9.O.9.O.@.( V 2 A S ( { ",
"O.+.&.+.o.~ ! F ( %.w.&.| } @.O.y.b.m.n.A.%.7 8 8 & & @ X X   O %.j.c.h.d.0.O.O.+.@.} ( S B D D G { ",
"] @.o.) ( ~ F F ~ { %.o.} ( ] ] 8.y.b.m.D.r.H % o + . o X   . & %.D.h.d.e.e.O.o.) _ ~ ~ ~ F S D F F ",
"~ ^ ) _ ! F D F F { | o.' ^ ] ] ..8.p.b.m.c.{ 8 O + . X     O 7 &.j.d.q.e.9.| { ) / ! ! ~ ' ! D F D ",
"! ~ ( ( F D D D F F  . .] [ O.O.....8.t.x.f.w.{ > & O + X O : ~ 9.q.e.9.O.| ' ( ( ( D D F F C B N N ",
"D F ~ ! F C D F F  . . .[ 7.9.9.9...T T 8.y.0.9.{ S : & % - J ] 9.9.9.9.| { ~ F S D C C C D D N N N ",
"N C D ! C D D D w.w.w.w.9.0.q.q.0.O.@.I [ 7.7...[ [ ' ~ I ] ..7.7.7.[ | ] ~ G S A A A D A A B B > > ",
"N N Z V C D D D w.w.r.w.| | e.q.0...' ~ P Y U U [ 7.7.7.7.9.9.9.7.....[ ~ S D 6 A A A A A > A A N > ",
"N N N ; Z V V F { | O.o.] ] ......] ! F ~ I I Y Y Y Y U U 7.9.9.7.[ [ ' C B Z > > , , , , N B A A A ",
"N N ; ; Z C G F ' } | | ~ J ] ..] ( D S ~ ] Y Y P P P P U 7.9.9.7.' ' F B N > > - , , , , ; < B D D "
};
